# xmcd CD database file generated by OrangeCD 6.4
#
# Track frame offsets:
#	150
#	15752
#	24808
#	39173
#	52566
#	62631
#	74782
#	92970
#	112837
#	129893
#
# Disc length: 1978 seconds
#
# Revision: 0
# Processed by: cddbd v1.5.2PL0 Copyright (c) Steve Scherf et al.
# Submitted via: OrangeCD 6.4
#
DISCID=6907b80a
DTITLE=AARON EMBRY - Tiny Prayers
DYEAR=2012
DGENRE=
TTITLE0=Moon Of the Daylit Sky
TTITLE1=Raven's Song
TTITLE2=Tiny Prayers
TTITLE3=When All Is Gone...
TTITLE4=Ode to 'If'
TTITLE5=Good-Red-Road Man
TTITLE6=No Go
TTITLE7=To the One
TTITLE8=So I Turn
TTITLE9=Your Heart and Mine
EXTD=
EXTT0=
EXTT1=
EXTT2=
EXTT3=
EXTT4=
EXTT5=
EXTT6=
EXTT7=
EXTT8=
EXTT9=
PLAYORDER=
